<mxfile host="app.diagrams.net" modified="2020-08-18T15:19:46.129Z" agent="5.0 (Windows NT 10.0; Win64; x64) AppleWebKit/537.36 (KHTML, like Gecko) Chrome/84.0.4147.105 Safari/537.36" etag="hTYJaX48wKk0gxC6DFcW" version="13.6.2" type="github" pages="3">
  <diagram id="C5RBs43oDa-KdzZeNtuy" name="Frontend">
    <mxGraphModel dx="1070" dy="706" grid="1" gridSize="10" guides="1" tooltips="1" connect="1" arrows="1" fold="1" page="1" pageScale="1" pageWidth="827" pageHeight="1169" math="0" shadow="0">
      <root>
        <mxCell id="WIyWlLk6GJQsqaUBKTNV-0" />
        <mxCell id="WIyWlLk6GJQsqaUBKTNV-1" parent="WIyWlLk6GJQsqaUBKTNV-0" />
        <mxCell id="c13dzNy1ZnhAuN01lxBO-24" style="edgeStyle=orthogonalEdgeStyle;rounded=0;orthogonalLoop=1;jettySize=auto;html=1;exitX=1;exitY=0.5;exitDx=0;exitDy=0;entryX=0.443;entryY=1.083;entryDx=0;entryDy=0;entryPerimeter=0;" edge="1" parent="WIyWlLk6GJQsqaUBKTNV-1" source="c13dzNy1ZnhAuN01lxBO-43" target="c13dzNy1ZnhAuN01lxBO-92">
          <mxGeometry relative="1" as="geometry">
            <mxPoint x="660" y="373" as="targetPoint" />
            <mxPoint x="693.98" y="412" as="sourcePoint" />
            <Array as="points">
              <mxPoint x="520" y="373" />
              <mxPoint x="520" y="350" />
              <mxPoint x="630" y="350" />
            </Array>
          </mxGeometry>
        </mxCell>
        <mxCell id="c13dzNy1ZnhAuN01lxBO-60" style="edgeStyle=orthogonalEdgeStyle;rounded=0;orthogonalLoop=1;jettySize=auto;html=1;entryX=0.5;entryY=0;entryDx=0;entryDy=0;exitX=0.5;exitY=1;exitDx=0;exitDy=0;" edge="1" parent="WIyWlLk6GJQsqaUBKTNV-1" source="c13dzNy1ZnhAuN01lxBO-1" target="c13dzNy1ZnhAuN01lxBO-34">
          <mxGeometry relative="1" as="geometry">
            <Array as="points">
              <mxPoint x="114" y="188" />
            </Array>
          </mxGeometry>
        </mxCell>
        <mxCell id="c13dzNy1ZnhAuN01lxBO-81" style="edgeStyle=orthogonalEdgeStyle;rounded=0;orthogonalLoop=1;jettySize=auto;html=1;entryX=1;entryY=0.5;entryDx=0;entryDy=0;" edge="1" parent="WIyWlLk6GJQsqaUBKTNV-1" source="c13dzNy1ZnhAuN01lxBO-45" target="c13dzNy1ZnhAuN01lxBO-79">
          <mxGeometry relative="1" as="geometry" />
        </mxCell>
        <mxCell id="c13dzNy1ZnhAuN01lxBO-66" style="edgeStyle=orthogonalEdgeStyle;rounded=0;orthogonalLoop=1;jettySize=auto;html=1;entryX=0.001;entryY=0.106;entryDx=0;entryDy=0;entryPerimeter=0;" edge="1" parent="WIyWlLk6GJQsqaUBKTNV-1" target="c13dzNy1ZnhAuN01lxBO-45">
          <mxGeometry relative="1" as="geometry">
            <mxPoint x="239" y="620" as="targetPoint" />
            <mxPoint x="189" y="580" as="sourcePoint" />
            <Array as="points">
              <mxPoint x="189" y="609" />
            </Array>
          </mxGeometry>
        </mxCell>
        <mxCell id="c13dzNy1ZnhAuN01lxBO-67" value="" style="endArrow=none;html=1;entryX=0.25;entryY=1;entryDx=0;entryDy=0;" edge="1" parent="WIyWlLk6GJQsqaUBKTNV-1" target="c13dzNy1ZnhAuN01lxBO-34">
          <mxGeometry width="50" height="50" relative="1" as="geometry">
            <mxPoint x="69" y="500" as="sourcePoint" />
            <mxPoint x="459" y="410" as="targetPoint" />
          </mxGeometry>
        </mxCell>
        <mxCell id="c13dzNy1ZnhAuN01lxBO-68" value="" style="endArrow=none;html=1;" edge="1" parent="WIyWlLk6GJQsqaUBKTNV-1">
          <mxGeometry width="50" height="50" relative="1" as="geometry">
            <mxPoint x="169" y="500" as="sourcePoint" />
            <mxPoint x="69" y="500" as="targetPoint" />
          </mxGeometry>
        </mxCell>
        <mxCell id="c13dzNy1ZnhAuN01lxBO-69" value="" style="endArrow=none;html=1;" edge="1" parent="WIyWlLk6GJQsqaUBKTNV-1">
          <mxGeometry width="50" height="50" relative="1" as="geometry">
            <mxPoint x="179" y="500" as="sourcePoint" />
            <mxPoint x="359" y="230" as="targetPoint" />
            <Array as="points">
              <mxPoint x="229" y="440" />
              <mxPoint x="249" y="260" />
              <mxPoint x="279" y="230" />
            </Array>
          </mxGeometry>
        </mxCell>
        <mxCell id="c13dzNy1ZnhAuN01lxBO-70" value="" style="endArrow=none;html=1;" edge="1" parent="WIyWlLk6GJQsqaUBKTNV-1">
          <mxGeometry width="50" height="50" relative="1" as="geometry">
            <mxPoint x="189" y="580" as="sourcePoint" />
            <mxPoint x="179" y="500" as="targetPoint" />
            <Array as="points">
              <mxPoint x="169" y="580" />
              <mxPoint x="169" y="560" />
            </Array>
          </mxGeometry>
        </mxCell>
        <mxCell id="c13dzNy1ZnhAuN01lxBO-71" style="edgeStyle=orthogonalEdgeStyle;rounded=0;orthogonalLoop=1;jettySize=auto;html=1;entryX=0;entryY=0.25;entryDx=0;entryDy=0;" edge="1" parent="WIyWlLk6GJQsqaUBKTNV-1" target="c13dzNy1ZnhAuN01lxBO-25">
          <mxGeometry relative="1" as="geometry">
            <mxPoint x="165.125" y="532.8399999999999" as="targetPoint" />
            <mxPoint x="169" y="500" as="sourcePoint" />
            <Array as="points">
              <mxPoint x="239" y="500" />
              <mxPoint x="239" y="472" />
            </Array>
          </mxGeometry>
        </mxCell>
        <mxCell id="c13dzNy1ZnhAuN01lxBO-72" style="edgeStyle=orthogonalEdgeStyle;rounded=0;orthogonalLoop=1;jettySize=auto;html=1;entryX=0.5;entryY=0;entryDx=0;entryDy=0;" edge="1" parent="WIyWlLk6GJQsqaUBKTNV-1" target="c13dzNy1ZnhAuN01lxBO-8">
          <mxGeometry relative="1" as="geometry">
            <mxPoint x="264" y="485" as="targetPoint" />
            <mxPoint x="359" y="230" as="sourcePoint" />
            <Array as="points">
              <mxPoint x="393" y="230" />
            </Array>
          </mxGeometry>
        </mxCell>
        <mxCell id="c13dzNy1ZnhAuN01lxBO-73" value="" style="ellipse;whiteSpace=wrap;html=1;aspect=fixed;strokeColor=#000000;strokeWidth=1;fillColor=none;" vertex="1" parent="WIyWlLk6GJQsqaUBKTNV-1">
          <mxGeometry x="159" y="480" width="40" height="40" as="geometry" />
        </mxCell>
        <mxCell id="c13dzNy1ZnhAuN01lxBO-90" style="edgeStyle=orthogonalEdgeStyle;rounded=0;orthogonalLoop=1;jettySize=auto;html=1;entryX=1;entryY=0.5;entryDx=0;entryDy=0;" edge="1" parent="WIyWlLk6GJQsqaUBKTNV-1" source="c13dzNy1ZnhAuN01lxBO-89" target="c13dzNy1ZnhAuN01lxBO-35">
          <mxGeometry relative="1" as="geometry" />
        </mxCell>
        <mxCell id="c13dzNy1ZnhAuN01lxBO-96" value="&lt;font style=&quot;font-size: 17px&quot;&gt;&lt;b&gt;import Tables from (&quot;./Backend&quot;)&lt;/b&gt;&lt;/font&gt;" style="text;html=1;align=center;verticalAlign=middle;resizable=0;points=[];autosize=1;" vertex="1" parent="WIyWlLk6GJQsqaUBKTNV-1">
          <mxGeometry x="489" y="70" width="280" height="20" as="geometry" />
        </mxCell>
        <mxCell id="c13dzNy1ZnhAuN01lxBO-1" value="AnonimUser&#xa;" style="swimlane;fontStyle=2;align=center;verticalAlign=top;childLayout=stackLayout;horizontal=1;startSize=26;horizontalStack=0;resizeParent=1;resizeLast=0;collapsible=1;marginBottom=0;rounded=0;shadow=0;strokeWidth=1;fillColor=#6a00ff;strokeColor=#3700CC;fontColor=#ffffff;" vertex="1" parent="WIyWlLk6GJQsqaUBKTNV-1">
          <mxGeometry x="19" y="50" width="160" height="138" as="geometry">
            <mxRectangle x="230" y="140" width="160" height="26" as="alternateBounds" />
          </mxGeometry>
        </mxCell>
        <mxCell id="c13dzNy1ZnhAuN01lxBO-2" value="-&#xa;" style="text;align=left;verticalAlign=top;spacingLeft=4;spacingRight=4;overflow=hidden;rotatable=0;points=[[0,0.5],[1,0.5]];portConstraint=eastwest;" vertex="1" parent="c13dzNy1ZnhAuN01lxBO-1">
          <mxGeometry y="26" width="160" height="26" as="geometry" />
        </mxCell>
        <mxCell id="c13dzNy1ZnhAuN01lxBO-3" value="-" style="text;align=left;verticalAlign=top;spacingLeft=4;spacingRight=4;overflow=hidden;rotatable=0;points=[[0,0.5],[1,0.5]];portConstraint=eastwest;rounded=0;shadow=0;html=0;" vertex="1" parent="c13dzNy1ZnhAuN01lxBO-1">
          <mxGeometry y="52" width="160" height="26" as="geometry" />
        </mxCell>
        <mxCell id="c13dzNy1ZnhAuN01lxBO-4" value="-" style="text;align=left;verticalAlign=top;spacingLeft=4;spacingRight=4;overflow=hidden;rotatable=0;points=[[0,0.5],[1,0.5]];portConstraint=eastwest;rounded=0;shadow=0;html=0;" vertex="1" parent="c13dzNy1ZnhAuN01lxBO-1">
          <mxGeometry y="78" width="160" height="26" as="geometry" />
        </mxCell>
        <mxCell id="c13dzNy1ZnhAuN01lxBO-5" value="" style="line;html=1;strokeWidth=1;align=left;verticalAlign=middle;spacingTop=-1;spacingLeft=3;spacingRight=3;rotatable=0;labelPosition=right;points=[];portConstraint=eastwest;" vertex="1" parent="c13dzNy1ZnhAuN01lxBO-1">
          <mxGeometry y="104" width="160" height="8" as="geometry" />
        </mxCell>
        <mxCell id="c13dzNy1ZnhAuN01lxBO-6" value="Nothing&lt;br&gt;" style="text;html=1;align=center;verticalAlign=middle;resizable=0;points=[];autosize=1;" vertex="1" parent="c13dzNy1ZnhAuN01lxBO-1">
          <mxGeometry y="112" width="160" height="20" as="geometry" />
        </mxCell>
        <mxCell id="c13dzNy1ZnhAuN01lxBO-34" value="MainPage" style="swimlane;fontStyle=1;align=center;verticalAlign=top;childLayout=stackLayout;horizontal=1;startSize=26;horizontalStack=0;resizeParent=1;resizeLast=0;collapsible=1;marginBottom=0;rounded=0;shadow=0;strokeWidth=1;fillColor=#fff2cc;" vertex="1" parent="WIyWlLk6GJQsqaUBKTNV-1">
          <mxGeometry x="19" y="240" width="190" height="110" as="geometry">
            <mxRectangle x="20" y="200" width="160" height="26" as="alternateBounds" />
          </mxGeometry>
        </mxCell>
        <mxCell id="c13dzNy1ZnhAuN01lxBO-35" value="NavBar ()" style="text;align=left;verticalAlign=top;spacingLeft=4;spacingRight=4;overflow=hidden;rotatable=0;points=[[0,0.5],[1,0.5]];portConstraint=eastwest;rounded=0;shadow=0;html=0;strokeColor=#000000;fontStyle=1" vertex="1" parent="c13dzNy1ZnhAuN01lxBO-34">
          <mxGeometry y="26" width="190" height="24" as="geometry" />
        </mxCell>
        <mxCell id="c13dzNy1ZnhAuN01lxBO-82" value="CafeStory or smtg kind of dis shit" style="text;align=left;verticalAlign=top;spacingLeft=4;spacingRight=4;overflow=hidden;rotatable=0;points=[[0,0.5],[1,0.5]];portConstraint=eastwest;rounded=0;shadow=0;html=0;" vertex="1" parent="c13dzNy1ZnhAuN01lxBO-34">
          <mxGeometry y="50" width="190" height="26" as="geometry" />
        </mxCell>
        <mxCell id="c13dzNy1ZnhAuN01lxBO-37" value="" style="line;html=1;strokeWidth=1;align=left;verticalAlign=middle;spacingTop=-1;spacingLeft=3;spacingRight=3;rotatable=0;labelPosition=right;points=[];portConstraint=eastwest;" vertex="1" parent="c13dzNy1ZnhAuN01lxBO-34">
          <mxGeometry y="76" width="190" height="8" as="geometry" />
        </mxCell>
        <mxCell id="c13dzNy1ZnhAuN01lxBO-62" value="Fotter ()" style="text;align=left;verticalAlign=top;spacingLeft=4;spacingRight=4;overflow=hidden;rotatable=0;points=[[0,0.5],[1,0.5]];portConstraint=eastwest;rounded=0;shadow=0;html=0;fontStyle=1" vertex="1" parent="c13dzNy1ZnhAuN01lxBO-34">
          <mxGeometry y="84" width="190" height="26" as="geometry" />
        </mxCell>
        <mxCell id="c13dzNy1ZnhAuN01lxBO-77" value="RegisterPage" style="swimlane;fontStyle=1;align=center;verticalAlign=top;childLayout=stackLayout;horizontal=1;startSize=26;horizontalStack=0;resizeParent=1;resizeParentMax=0;resizeLast=0;collapsible=1;marginBottom=0;fillColor=#fff2cc;" vertex="1" parent="WIyWlLk6GJQsqaUBKTNV-1">
          <mxGeometry x="19" y="650" width="225" height="142" as="geometry">
            <mxRectangle x="20" y="610" width="90" height="26" as="alternateBounds" />
          </mxGeometry>
        </mxCell>
        <mxCell id="c13dzNy1ZnhAuN01lxBO-78" value="NavBar ()" style="text;strokeColor=none;fillColor=none;align=left;verticalAlign=top;spacingLeft=4;spacingRight=4;overflow=hidden;rotatable=0;points=[[0,0.5],[1,0.5]];portConstraint=eastwest;fontStyle=1" vertex="1" parent="c13dzNy1ZnhAuN01lxBO-77">
          <mxGeometry y="26" width="225" height="34" as="geometry" />
        </mxCell>
        <mxCell id="c13dzNy1ZnhAuN01lxBO-79" value="Fields(Email, Password, PhoneNumber )" style="text;fillColor=none;align=left;verticalAlign=top;spacingLeft=4;spacingRight=4;overflow=hidden;rotatable=0;points=[[0,0.5],[1,0.5]];portConstraint=eastwest;strokeColor=#000000;" vertex="1" parent="c13dzNy1ZnhAuN01lxBO-77">
          <mxGeometry y="60" width="225" height="26" as="geometry" />
        </mxCell>
        <mxCell id="c13dzNy1ZnhAuN01lxBO-80" value="btnSignUp (/home)" style="text;strokeColor=none;fillColor=none;align=left;verticalAlign=top;spacingLeft=4;spacingRight=4;overflow=hidden;rotatable=0;points=[[0,0.5],[1,0.5]];portConstraint=eastwest;" vertex="1" parent="c13dzNy1ZnhAuN01lxBO-77">
          <mxGeometry y="86" width="225" height="26" as="geometry" />
        </mxCell>
        <mxCell id="yLp0vadms8Q8IdHQY-LJ-3" value="Fotter ()" style="text;align=left;verticalAlign=top;spacingLeft=4;spacingRight=4;overflow=hidden;rotatable=0;points=[[0,0.5],[1,0.5]];portConstraint=eastwest;rounded=0;shadow=0;html=0;strokeColor=#000000;fontStyle=1" vertex="1" parent="c13dzNy1ZnhAuN01lxBO-77">
          <mxGeometry y="112" width="225" height="30" as="geometry" />
        </mxCell>
        <mxCell id="c13dzNy1ZnhAuN01lxBO-84" value="*component* NavBar" style="swimlane;fontStyle=3;align=center;verticalAlign=top;childLayout=stackLayout;horizontal=1;startSize=26;horizontalStack=0;resizeParent=1;resizeLast=0;collapsible=1;marginBottom=0;rounded=0;shadow=0;strokeWidth=1;fillColor=#fa6800;strokeColor=#C73500;fontColor=#ffffff;" vertex="1" parent="WIyWlLk6GJQsqaUBKTNV-1">
          <mxGeometry x="254" y="20" width="190" height="200" as="geometry">
            <mxRectangle x="20" y="200" width="160" height="26" as="alternateBounds" />
          </mxGeometry>
        </mxCell>
        <mxCell id="c13dzNy1ZnhAuN01lxBO-89" value="HomePage(/home)&#xa;ProductPage(/products)&#xa;CartPage(&#xa;if(cart != empty{/cart}&#xa;else{/emptyCart}&#xa;))&#xa;Sign In(/signin)&#xa;Profile(&#xa;if(user=true&#xa;{/profile}&#xa;else{/signin}&#xa;)) " style="text;align=left;verticalAlign=top;spacingLeft=4;spacingRight=4;overflow=hidden;rotatable=0;points=[[0,0.5],[1,0.5]];portConstraint=eastwest;rounded=0;shadow=0;html=0;" vertex="1" parent="c13dzNy1ZnhAuN01lxBO-84">
          <mxGeometry y="26" width="190" height="174" as="geometry" />
        </mxCell>
        <mxCell id="0l6X6uoeNZKktk0_X8Zo-6" style="edgeStyle=orthogonalEdgeStyle;rounded=0;orthogonalLoop=1;jettySize=auto;html=1;fontColor=none;entryX=1.011;entryY=1.193;entryDx=0;entryDy=0;entryPerimeter=0;exitX=1;exitY=0.5;exitDx=0;exitDy=0;" edge="1" parent="WIyWlLk6GJQsqaUBKTNV-1" source="0l6X6uoeNZKktk0_X8Zo-7" target="0l6X6uoeNZKktk0_X8Zo-1">
          <mxGeometry relative="1" as="geometry">
            <mxPoint x="810" y="630" as="targetPoint" />
            <Array as="points">
              <mxPoint x="810" y="245" />
              <mxPoint x="810" y="595" />
            </Array>
          </mxGeometry>
        </mxCell>
        <mxCell id="c13dzNy1ZnhAuN01lxBO-45" value="LoginPage&#xa;" style="swimlane;fontStyle=1;align=center;verticalAlign=top;childLayout=stackLayout;horizontal=1;startSize=26;horizontalStack=0;resizeParent=1;resizeParentMax=0;resizeLast=0;collapsible=1;marginBottom=0;fillColor=#fff2cc;" vertex="1" parent="WIyWlLk6GJQsqaUBKTNV-1">
          <mxGeometry x="280" y="594" width="225" height="142" as="geometry">
            <mxRectangle x="255" y="540" width="90" height="26" as="alternateBounds" />
          </mxGeometry>
        </mxCell>
        <mxCell id="c13dzNy1ZnhAuN01lxBO-46" value="NavBar ()" style="text;strokeColor=none;fillColor=none;align=left;verticalAlign=top;spacingLeft=4;spacingRight=4;overflow=hidden;rotatable=0;points=[[0,0.5],[1,0.5]];portConstraint=eastwest;fontStyle=1" vertex="1" parent="c13dzNy1ZnhAuN01lxBO-45">
          <mxGeometry y="26" width="225" height="34" as="geometry" />
        </mxCell>
        <mxCell id="c13dzNy1ZnhAuN01lxBO-48" value="Filds(Email, Password)" style="text;fillColor=none;align=left;verticalAlign=top;spacingLeft=4;spacingRight=4;overflow=hidden;rotatable=0;points=[[0,0.5],[1,0.5]];portConstraint=eastwest;strokeColor=#000000;" vertex="1" parent="c13dzNy1ZnhAuN01lxBO-45">
          <mxGeometry y="60" width="225" height="26" as="geometry" />
        </mxCell>
        <mxCell id="c13dzNy1ZnhAuN01lxBO-49" value="LinkRegisterPage (/signup)" style="text;strokeColor=none;fillColor=none;align=left;verticalAlign=top;spacingLeft=4;spacingRight=4;overflow=hidden;rotatable=0;points=[[0,0.5],[1,0.5]];portConstraint=eastwest;" vertex="1" parent="c13dzNy1ZnhAuN01lxBO-45">
          <mxGeometry y="86" width="225" height="26" as="geometry" />
        </mxCell>
        <mxCell id="yLp0vadms8Q8IdHQY-LJ-2" value="Fotter ()" style="text;align=left;verticalAlign=top;spacingLeft=4;spacingRight=4;overflow=hidden;rotatable=0;points=[[0,0.5],[1,0.5]];portConstraint=eastwest;rounded=0;shadow=0;html=0;strokeColor=#000000;fontStyle=1" vertex="1" parent="c13dzNy1ZnhAuN01lxBO-45">
          <mxGeometry y="112" width="225" height="30" as="geometry" />
        </mxCell>
        <mxCell id="c13dzNy1ZnhAuN01lxBO-25" value="CardPage" style="swimlane;fontStyle=1;align=center;verticalAlign=top;childLayout=stackLayout;horizontal=1;startSize=26;horizontalStack=0;resizeParent=1;resizeParentMax=0;resizeLast=0;collapsible=1;marginBottom=0;fillColor=#fff2cc;" vertex="1" parent="WIyWlLk6GJQsqaUBKTNV-1">
          <mxGeometry x="280" y="434.5" width="225" height="150" as="geometry">
            <mxRectangle x="255" y="405" width="90" height="26" as="alternateBounds" />
          </mxGeometry>
        </mxCell>
        <mxCell id="c13dzNy1ZnhAuN01lxBO-26" value="NavBar ()" style="text;strokeColor=none;fillColor=none;align=left;verticalAlign=top;spacingLeft=4;spacingRight=4;overflow=hidden;rotatable=0;points=[[0,0.5],[1,0.5]];portConstraint=eastwest;fontStyle=1" vertex="1" parent="c13dzNy1ZnhAuN01lxBO-25">
          <mxGeometry y="26" width="225" height="34" as="geometry" />
        </mxCell>
        <mxCell id="c13dzNy1ZnhAuN01lxBO-27" value="" style="line;strokeWidth=1;fillColor=none;align=left;verticalAlign=middle;spacingTop=-1;spacingLeft=3;spacingRight=3;rotatable=0;labelPosition=right;points=[];portConstraint=eastwest;" vertex="1" parent="c13dzNy1ZnhAuN01lxBO-25">
          <mxGeometry y="60" width="225" height="8" as="geometry" />
        </mxCell>
        <mxCell id="c13dzNy1ZnhAuN01lxBO-28" value="CartItems(PizzaCards(add/delete))" style="text;fillColor=none;align=left;verticalAlign=top;spacingLeft=4;spacingRight=4;overflow=hidden;rotatable=0;points=[[0,0.5],[1,0.5]];portConstraint=eastwest;" vertex="1" parent="c13dzNy1ZnhAuN01lxBO-25">
          <mxGeometry y="68" width="225" height="26" as="geometry" />
        </mxCell>
        <mxCell id="c13dzNy1ZnhAuN01lxBO-44" value="btnOrder" style="text;fillColor=none;align=left;verticalAlign=top;spacingLeft=4;spacingRight=4;overflow=hidden;rotatable=0;points=[[0,0.5],[1,0.5]];portConstraint=eastwest;strokeColor=#000000;" vertex="1" parent="c13dzNy1ZnhAuN01lxBO-25">
          <mxGeometry y="94" width="225" height="26" as="geometry" />
        </mxCell>
        <mxCell id="yLp0vadms8Q8IdHQY-LJ-1" value="Fotter ()" style="text;align=left;verticalAlign=top;spacingLeft=4;spacingRight=4;overflow=hidden;rotatable=0;points=[[0,0.5],[1,0.5]];portConstraint=eastwest;rounded=0;shadow=0;html=0;fontStyle=1" vertex="1" parent="c13dzNy1ZnhAuN01lxBO-25">
          <mxGeometry y="120" width="225" height="30" as="geometry" />
        </mxCell>
        <mxCell id="c13dzNy1ZnhAuN01lxBO-8" value="ProductPage&#xa;" style="swimlane;fontStyle=1;align=center;verticalAlign=top;childLayout=stackLayout;horizontal=1;startSize=26;horizontalStack=0;resizeParent=1;resizeLast=0;collapsible=1;marginBottom=0;rounded=0;shadow=0;strokeWidth=1;fillColor=#fff2cc;" vertex="1" parent="WIyWlLk6GJQsqaUBKTNV-1">
          <mxGeometry x="280" y="280" width="225" height="140" as="geometry">
            <mxRectangle x="255" y="240" width="160" height="26" as="alternateBounds" />
          </mxGeometry>
        </mxCell>
        <mxCell id="c13dzNy1ZnhAuN01lxBO-10" value="NavBar ()" style="text;align=left;verticalAlign=top;spacingLeft=4;spacingRight=4;overflow=hidden;rotatable=0;points=[[0,0.5],[1,0.5]];portConstraint=eastwest;rounded=0;shadow=0;html=0;strokeColor=#000000;fontStyle=1" vertex="1" parent="c13dzNy1ZnhAuN01lxBO-8">
          <mxGeometry y="26" width="225" height="24" as="geometry" />
        </mxCell>
        <mxCell id="c13dzNy1ZnhAuN01lxBO-11" value="UserShortInfo(Wallet, Cart))" style="text;align=left;verticalAlign=top;spacingLeft=4;spacingRight=4;overflow=hidden;rotatable=0;points=[[0,0.5],[1,0.5]];portConstraint=eastwest;rounded=0;shadow=0;html=0;" vertex="1" parent="c13dzNy1ZnhAuN01lxBO-8">
          <mxGeometry y="50" width="225" height="26" as="geometry" />
        </mxCell>
        <mxCell id="c13dzNy1ZnhAuN01lxBO-43" value="PizzaCard(PizzaImg, Cost, btnAddToCart)&#xa;" style="text;align=left;verticalAlign=top;spacingLeft=4;spacingRight=4;overflow=hidden;rotatable=0;points=[[0,0.5],[1,0.5]];portConstraint=eastwest;rounded=0;shadow=0;html=0;" vertex="1" parent="c13dzNy1ZnhAuN01lxBO-8">
          <mxGeometry y="76" width="225" height="34" as="geometry" />
        </mxCell>
        <mxCell id="c13dzNy1ZnhAuN01lxBO-63" value="Fotter ()" style="text;align=left;verticalAlign=top;spacingLeft=4;spacingRight=4;overflow=hidden;rotatable=0;points=[[0,0.5],[1,0.5]];portConstraint=eastwest;rounded=0;shadow=0;html=0;strokeColor=#000000;fontStyle=1" vertex="1" parent="c13dzNy1ZnhAuN01lxBO-8">
          <mxGeometry y="110" width="225" height="30" as="geometry" />
        </mxCell>
        <mxCell id="yLp0vadms8Q8IdHQY-LJ-5" value="" style="endArrow=none;html=1;fontColor=none;exitX=0.5;exitY=0.5;exitDx=0;exitDy=0;exitPerimeter=0;" edge="1" parent="WIyWlLk6GJQsqaUBKTNV-1" source="c13dzNy1ZnhAuN01lxBO-73">
          <mxGeometry width="50" height="50" relative="1" as="geometry">
            <mxPoint x="410" y="430" as="sourcePoint" />
            <mxPoint x="450" y="230" as="targetPoint" />
            <Array as="points">
              <mxPoint x="230" y="440" />
              <mxPoint x="250" y="260" />
              <mxPoint x="280" y="230" />
            </Array>
          </mxGeometry>
        </mxCell>
        <mxCell id="yLp0vadms8Q8IdHQY-LJ-6" value="" style="endArrow=classic;html=1;fontColor=none;entryX=-0.004;entryY=0.215;entryDx=0;entryDy=0;entryPerimeter=0;" edge="1" parent="WIyWlLk6GJQsqaUBKTNV-1" target="c13dzNy1ZnhAuN01lxBO-99">
          <mxGeometry width="50" height="50" relative="1" as="geometry">
            <mxPoint x="450" y="230" as="sourcePoint" />
            <mxPoint x="460" y="380" as="targetPoint" />
          </mxGeometry>
        </mxCell>
        <mxCell id="yLp0vadms8Q8IdHQY-LJ-9" style="edgeStyle=orthogonalEdgeStyle;rounded=0;orthogonalLoop=1;jettySize=auto;html=1;entryX=0;entryY=0.5;entryDx=0;entryDy=0;fontColor=none;" edge="1" parent="WIyWlLk6GJQsqaUBKTNV-1" source="c13dzNy1ZnhAuN01lxBO-44">
          <mxGeometry relative="1" as="geometry">
            <mxPoint x="539" y="392.5" as="targetPoint" />
            <Array as="points">
              <mxPoint x="520" y="540" />
              <mxPoint x="520" y="393" />
            </Array>
          </mxGeometry>
        </mxCell>
        <mxCell id="c13dzNy1ZnhAuN01lxBO-91" value="addPizzaDialogWin" style="swimlane;fontStyle=0;align=center;verticalAlign=top;childLayout=stackLayout;horizontal=1;startSize=26;horizontalStack=0;resizeParent=1;resizeLast=0;collapsible=1;marginBottom=0;rounded=0;shadow=0;strokeWidth=1;fillColor=#d80073;strokeColor=#A50040;fontColor=#ffffff;" vertex="1" parent="WIyWlLk6GJQsqaUBKTNV-1">
          <mxGeometry x="519" y="270" width="250" height="60" as="geometry">
            <mxRectangle x="20" y="200" width="160" height="26" as="alternateBounds" />
          </mxGeometry>
        </mxCell>
        <mxCell id="c13dzNy1ZnhAuN01lxBO-92" value="message(&quot;You add&quot; + pizza.name + &quot;to cart!&quot;)" style="text;align=left;verticalAlign=top;spacingLeft=4;spacingRight=4;overflow=hidden;rotatable=0;points=[[0,0.5],[1,0.5]];portConstraint=eastwest;rounded=0;shadow=0;html=0;" vertex="1" parent="c13dzNy1ZnhAuN01lxBO-91">
          <mxGeometry y="26" width="250" height="34" as="geometry" />
        </mxCell>
        <mxCell id="yLp0vadms8Q8IdHQY-LJ-7" value="orderPizzaDialogWin" style="swimlane;fontStyle=0;align=center;verticalAlign=top;childLayout=stackLayout;horizontal=1;startSize=26;horizontalStack=0;resizeParent=1;resizeLast=0;collapsible=1;marginBottom=0;rounded=0;shadow=0;strokeWidth=1;fillColor=#d80073;strokeColor=#A50040;fontColor=#ffffff;" vertex="1" parent="WIyWlLk6GJQsqaUBKTNV-1">
          <mxGeometry x="540" y="374.5" width="250" height="130" as="geometry">
            <mxRectangle x="20" y="200" width="160" height="26" as="alternateBounds" />
          </mxGeometry>
        </mxCell>
        <mxCell id="yLp0vadms8Q8IdHQY-LJ-13" value="styles" style="text;align=left;verticalAlign=top;spacingLeft=4;spacingRight=4;overflow=hidden;rotatable=0;points=[[0,0.5],[1,0.5]];portConstraint=eastwest;rounded=0;shadow=0;html=0;strokeColor=#000000;" vertex="1" parent="yLp0vadms8Q8IdHQY-LJ-7">
          <mxGeometry y="26" width="250" height="34" as="geometry" />
        </mxCell>
        <mxCell id="yLp0vadms8Q8IdHQY-LJ-8" value="Fields(pizzas, all cost, &#xa;payment method(cash/card))" style="text;align=left;verticalAlign=top;spacingLeft=4;spacingRight=4;overflow=hidden;rotatable=0;points=[[0,0.5],[1,0.5]];portConstraint=eastwest;rounded=0;shadow=0;html=0;" vertex="1" parent="yLp0vadms8Q8IdHQY-LJ-7">
          <mxGeometry y="60" width="250" height="40" as="geometry" />
        </mxCell>
        <mxCell id="yLp0vadms8Q8IdHQY-LJ-14" value="btnOrder =&gt; create table Order#N" style="text;align=left;verticalAlign=top;spacingLeft=4;spacingRight=4;overflow=hidden;rotatable=0;points=[[0,0.5],[1,0.5]];portConstraint=eastwest;rounded=0;shadow=0;html=0;strokeColor=#000000;" vertex="1" parent="yLp0vadms8Q8IdHQY-LJ-7">
          <mxGeometry y="100" width="250" height="30" as="geometry" />
        </mxCell>
        <mxCell id="0l6X6uoeNZKktk0_X8Zo-0" value="OrderListPage" style="swimlane;fontStyle=1;align=center;verticalAlign=top;childLayout=stackLayout;horizontal=1;startSize=26;horizontalStack=0;resizeParent=1;resizeParentMax=0;resizeLast=0;collapsible=1;marginBottom=0;fillColor=#fff2cc;" vertex="1" parent="WIyWlLk6GJQsqaUBKTNV-1">
          <mxGeometry x="545" y="540" width="225" height="146" as="geometry">
            <mxRectangle x="255" y="405" width="90" height="26" as="alternateBounds" />
          </mxGeometry>
        </mxCell>
        <mxCell id="0l6X6uoeNZKktk0_X8Zo-1" value="NavBar ()" style="text;fillColor=none;align=left;verticalAlign=top;spacingLeft=4;spacingRight=4;overflow=hidden;rotatable=0;points=[[0,0.5],[1,0.5]];portConstraint=eastwest;fontStyle=1;" vertex="1" parent="0l6X6uoeNZKktk0_X8Zo-0">
          <mxGeometry y="26" width="225" height="24" as="geometry" />
        </mxCell>
        <mxCell id="0l6X6uoeNZKktk0_X8Zo-2" value="" style="line;strokeWidth=1;fillColor=none;align=left;verticalAlign=middle;spacingTop=-1;spacingLeft=3;spacingRight=3;rotatable=0;labelPosition=right;points=[];portConstraint=eastwest;" vertex="1" parent="0l6X6uoeNZKktk0_X8Zo-0">
          <mxGeometry y="50" width="225" height="8" as="geometry" />
        </mxCell>
        <mxCell id="0l6X6uoeNZKktk0_X8Zo-8" value="LinkProfile(/profile)" style="text;fillColor=none;align=left;verticalAlign=top;spacingLeft=4;spacingRight=4;overflow=hidden;rotatable=0;points=[[0,0.5],[1,0.5]];portConstraint=eastwest;" vertex="1" parent="0l6X6uoeNZKktk0_X8Zo-0">
          <mxGeometry y="58" width="225" height="32" as="geometry" />
        </mxCell>
        <mxCell id="0l6X6uoeNZKktk0_X8Zo-3" value="orderlist []" style="text;fillColor=none;align=left;verticalAlign=top;spacingLeft=4;spacingRight=4;overflow=hidden;rotatable=0;points=[[0,0.5],[1,0.5]];portConstraint=eastwest;strokeColor=#000000;" vertex="1" parent="0l6X6uoeNZKktk0_X8Zo-0">
          <mxGeometry y="90" width="225" height="26" as="geometry" />
        </mxCell>
        <mxCell id="0l6X6uoeNZKktk0_X8Zo-5" value="Fotter ()" style="text;align=left;verticalAlign=top;spacingLeft=4;spacingRight=4;overflow=hidden;rotatable=0;points=[[0,0.5],[1,0.5]];portConstraint=eastwest;rounded=0;shadow=0;html=0;strokeColor=#000000;fontStyle=1" vertex="1" parent="0l6X6uoeNZKktk0_X8Zo-0">
          <mxGeometry y="116" width="225" height="30" as="geometry" />
        </mxCell>
        <mxCell id="c13dzNy1ZnhAuN01lxBO-97" value="ProfilePage" style="swimlane;fontStyle=1;align=center;verticalAlign=top;childLayout=stackLayout;horizontal=1;startSize=26;horizontalStack=0;resizeParent=1;resizeParentMax=0;resizeLast=0;collapsible=1;marginBottom=0;fillColor=#fff2cc;" vertex="1" parent="WIyWlLk6GJQsqaUBKTNV-1">
          <mxGeometry x="489" y="110" width="281" height="150" as="geometry">
            <mxRectangle x="255" y="540" width="90" height="26" as="alternateBounds" />
          </mxGeometry>
        </mxCell>
        <mxCell id="c13dzNy1ZnhAuN01lxBO-98" value="NavBar ()" style="text;strokeColor=none;fillColor=none;align=left;verticalAlign=top;spacingLeft=4;spacingRight=4;overflow=hidden;rotatable=0;points=[[0,0.5],[1,0.5]];portConstraint=eastwest;fontStyle=1" vertex="1" parent="c13dzNy1ZnhAuN01lxBO-97">
          <mxGeometry y="26" width="281" height="34" as="geometry" />
        </mxCell>
        <mxCell id="c13dzNy1ZnhAuN01lxBO-99" value="Filds(Img, Email, phoneNumber, Address)" style="text;fillColor=none;align=left;verticalAlign=top;spacingLeft=4;spacingRight=4;overflow=hidden;rotatable=0;points=[[0,0.5],[1,0.5]];portConstraint=eastwest;strokeColor=#000000;" vertex="1" parent="c13dzNy1ZnhAuN01lxBO-97">
          <mxGeometry y="60" width="281" height="30" as="geometry" />
        </mxCell>
        <mxCell id="c13dzNy1ZnhAuN01lxBO-102" value="btnEdit(adll fields has turned from labels to inserts)" style="text;fillColor=none;align=left;verticalAlign=top;spacingLeft=4;spacingRight=4;overflow=hidden;rotatable=0;points=[[0,0.5],[1,0.5]];portConstraint=eastwest;strokeColor=#000000;" vertex="1" parent="c13dzNy1ZnhAuN01lxBO-97">
          <mxGeometry y="90" width="281" height="30" as="geometry" />
        </mxCell>
        <mxCell id="0l6X6uoeNZKktk0_X8Zo-7" value="LinkOrderList(/profile/orderlist#)" style="text;fillColor=none;align=left;verticalAlign=top;spacingLeft=4;spacingRight=4;overflow=hidden;rotatable=0;points=[[0,0.5],[1,0.5]];portConstraint=eastwest;strokeColor=#000000;" vertex="1" parent="c13dzNy1ZnhAuN01lxBO-97">
          <mxGeometry y="120" width="281" height="30" as="geometry" />
        </mxCell>
      </root>
    </mxGraphModel>
  </diagram>
  <diagram id="vOFbJ1k0sG1v3mK9PdYB" name="AdmFrontend">
    <mxGraphModel dx="1070" dy="706" grid="1" gridSize="10" guides="1" tooltips="1" connect="1" arrows="1" fold="1" page="1" pageScale="1" pageWidth="827" pageHeight="1169" math="0" shadow="0">
      <root>
        <mxCell id="B-sjW55xQolaK1VX04n9-0" />
        <mxCell id="B-sjW55xQolaK1VX04n9-1" parent="B-sjW55xQolaK1VX04n9-0" />
        <mxCell id="y9pTVBJ6gEQauMtzolxB-5" style="edgeStyle=orthogonalEdgeStyle;rounded=0;orthogonalLoop=1;jettySize=auto;html=1;fontColor=none;entryX=0.463;entryY=1.081;entryDx=0;entryDy=0;entryPerimeter=0;" edge="1" parent="B-sjW55xQolaK1VX04n9-1" source="s6x1saD_XZjNKKNaqBn3-0" target="y9pTVBJ6gEQauMtzolxB-4">
          <mxGeometry relative="1" as="geometry">
            <mxPoint x="140" y="410" as="targetPoint" />
            <Array as="points">
              <mxPoint x="90" y="374" />
              <mxPoint x="301" y="374" />
            </Array>
          </mxGeometry>
        </mxCell>
        <mxCell id="y9pTVBJ6gEQauMtzolxB-0" value="AdminPage" style="swimlane;fontStyle=1;align=center;verticalAlign=top;childLayout=stackLayout;horizontal=1;startSize=26;horizontalStack=0;resizeParent=1;resizeLast=0;collapsible=1;marginBottom=0;rounded=0;shadow=0;strokeWidth=1;fillColor=#fff2cc;" vertex="1" parent="B-sjW55xQolaK1VX04n9-1">
          <mxGeometry x="190" y="230" width="240" height="124" as="geometry">
            <mxRectangle x="20" y="200" width="160" height="26" as="alternateBounds" />
          </mxGeometry>
        </mxCell>
        <mxCell id="y9pTVBJ6gEQauMtzolxB-1" value="AdmNavBar ()" style="text;align=left;verticalAlign=top;spacingLeft=4;spacingRight=4;overflow=hidden;rotatable=0;points=[[0,0.5],[1,0.5]];portConstraint=eastwest;rounded=0;shadow=0;html=0;strokeColor=#000000;fontStyle=1" vertex="1" parent="y9pTVBJ6gEQauMtzolxB-0">
          <mxGeometry y="26" width="240" height="24" as="geometry" />
        </mxCell>
        <mxCell id="y9pTVBJ6gEQauMtzolxB-2" value="guide on how to work with the admin panel&#xa; or smtg kind of dis shit" style="text;align=left;verticalAlign=top;spacingLeft=4;spacingRight=4;overflow=hidden;rotatable=0;points=[[0,0.5],[1,0.5]];portConstraint=eastwest;rounded=0;shadow=0;html=0;" vertex="1" parent="y9pTVBJ6gEQauMtzolxB-0">
          <mxGeometry y="50" width="240" height="40" as="geometry" />
        </mxCell>
        <mxCell id="y9pTVBJ6gEQauMtzolxB-3" value="" style="line;html=1;strokeWidth=1;align=left;verticalAlign=middle;spacingTop=-1;spacingLeft=3;spacingRight=3;rotatable=0;labelPosition=right;points=[];portConstraint=eastwest;" vertex="1" parent="y9pTVBJ6gEQauMtzolxB-0">
          <mxGeometry y="90" width="240" height="8" as="geometry" />
        </mxCell>
        <mxCell id="y9pTVBJ6gEQauMtzolxB-4" value="Fotter ()" style="text;align=left;verticalAlign=top;spacingLeft=4;spacingRight=4;overflow=hidden;rotatable=0;points=[[0,0.5],[1,0.5]];portConstraint=eastwest;rounded=0;shadow=0;html=0;fontStyle=1" vertex="1" parent="y9pTVBJ6gEQauMtzolxB-0">
          <mxGeometry y="98" width="240" height="26" as="geometry" />
        </mxCell>
        <mxCell id="Ik_quvj-oBrPbLBru3RL-7" value="" style="endArrow=none;html=1;fontColor=none;entryX=1;entryY=0.5;entryDx=0;entryDy=0;" edge="1" parent="B-sjW55xQolaK1VX04n9-1" target="y9pTVBJ6gEQauMtzolxB-2">
          <mxGeometry width="50" height="50" relative="1" as="geometry">
            <mxPoint x="500" y="80" as="sourcePoint" />
            <mxPoint x="440" y="290" as="targetPoint" />
            <Array as="points">
              <mxPoint x="480" y="80" />
              <mxPoint x="480" y="90" />
              <mxPoint x="480" y="300" />
            </Array>
          </mxGeometry>
        </mxCell>
        <mxCell id="Ik_quvj-oBrPbLBru3RL-9" value="" style="endArrow=none;html=1;fontColor=none;" edge="1" parent="B-sjW55xQolaK1VX04n9-1">
          <mxGeometry width="50" height="50" relative="1" as="geometry">
            <mxPoint x="480" y="420" as="sourcePoint" />
            <mxPoint x="430" y="300" as="targetPoint" />
            <Array as="points">
              <mxPoint x="480" y="430" />
              <mxPoint x="480" y="300" />
            </Array>
          </mxGeometry>
        </mxCell>
        <mxCell id="Ik_quvj-oBrPbLBru3RL-10" value="" style="endArrow=none;html=1;fontColor=none;" edge="1" parent="B-sjW55xQolaK1VX04n9-1">
          <mxGeometry width="50" height="50" relative="1" as="geometry">
            <mxPoint x="460" y="300" as="sourcePoint" />
            <mxPoint x="440" y="300" as="targetPoint" />
            <Array as="points" />
          </mxGeometry>
        </mxCell>
        <mxCell id="Ik_quvj-oBrPbLBru3RL-11" value="AddPizzaPage" style="swimlane;fontStyle=1;align=center;verticalAlign=top;childLayout=stackLayout;horizontal=1;startSize=26;horizontalStack=0;resizeParent=1;resizeLast=0;collapsible=1;marginBottom=0;rounded=0;shadow=0;strokeWidth=1;fillColor=#fff2cc;" vertex="1" parent="B-sjW55xQolaK1VX04n9-1">
          <mxGeometry x="540" y="205" width="240" height="136" as="geometry">
            <mxRectangle x="20" y="200" width="160" height="26" as="alternateBounds" />
          </mxGeometry>
        </mxCell>
        <mxCell id="Ik_quvj-oBrPbLBru3RL-12" value="AdmNavBar ()" style="text;align=left;verticalAlign=top;spacingLeft=4;spacingRight=4;overflow=hidden;rotatable=0;points=[[0,0.5],[1,0.5]];portConstraint=eastwest;rounded=0;shadow=0;html=0;strokeColor=#000000;fontStyle=1" vertex="1" parent="Ik_quvj-oBrPbLBru3RL-11">
          <mxGeometry y="26" width="240" height="24" as="geometry" />
        </mxCell>
        <mxCell id="Ik_quvj-oBrPbLBru3RL-13" value="InputFields:Tables.DbPizza" style="text;align=left;verticalAlign=top;spacingLeft=4;spacingRight=4;overflow=hidden;rotatable=0;points=[[0,0.5],[1,0.5]];portConstraint=eastwest;rounded=0;shadow=0;html=0;" vertex="1" parent="Ik_quvj-oBrPbLBru3RL-11">
          <mxGeometry y="50" width="240" height="30" as="geometry" />
        </mxCell>
        <mxCell id="Ik_quvj-oBrPbLBru3RL-14" value="btnAddPizza =&gt; fucn.add to db" style="text;align=left;verticalAlign=top;spacingLeft=4;spacingRight=4;overflow=hidden;rotatable=0;points=[[0,0.5],[1,0.5]];portConstraint=eastwest;rounded=0;shadow=0;html=0;strokeColor=#000000;" vertex="1" parent="Ik_quvj-oBrPbLBru3RL-11">
          <mxGeometry y="80" width="240" height="30" as="geometry" />
        </mxCell>
        <mxCell id="Ik_quvj-oBrPbLBru3RL-17" value="Fotter ()" style="text;align=left;verticalAlign=top;spacingLeft=4;spacingRight=4;overflow=hidden;rotatable=0;points=[[0,0.5],[1,0.5]];portConstraint=eastwest;rounded=0;shadow=0;html=0;fontStyle=1" vertex="1" parent="Ik_quvj-oBrPbLBru3RL-11">
          <mxGeometry y="110" width="240" height="26" as="geometry" />
        </mxCell>
        <mxCell id="cdPljDk1j9fcU-tsxBBR-0" value="&lt;font style=&quot;font-size: 17px&quot;&gt;&lt;b&gt;import Tables from (&quot;./Backend&quot;)&lt;/b&gt;&lt;/font&gt;" style="text;html=1;align=center;verticalAlign=middle;resizable=0;points=[];autosize=1;" vertex="1" parent="B-sjW55xQolaK1VX04n9-1">
          <mxGeometry y="30" width="280" height="20" as="geometry" />
        </mxCell>
        <mxCell id="s6x1saD_XZjNKKNaqBn3-0" value="AdminUser&#xa;" style="swimlane;fontStyle=2;align=center;verticalAlign=top;childLayout=stackLayout;horizontal=1;startSize=26;horizontalStack=0;resizeParent=1;resizeLast=0;collapsible=1;marginBottom=0;rounded=0;shadow=0;strokeWidth=1;fillColor=#6a00ff;strokeColor=#3700CC;fontColor=#ffffff;" vertex="1" parent="B-sjW55xQolaK1VX04n9-1">
          <mxGeometry x="10" y="80" width="160" height="138" as="geometry">
            <mxRectangle x="230" y="140" width="160" height="26" as="alternateBounds" />
          </mxGeometry>
        </mxCell>
        <mxCell id="s6x1saD_XZjNKKNaqBn3-1" value="-userName/Email: kozak&#xa;" style="text;align=left;verticalAlign=top;spacingLeft=4;spacingRight=4;overflow=hidden;rotatable=0;points=[[0,0.5],[1,0.5]];portConstraint=eastwest;" vertex="1" parent="s6x1saD_XZjNKKNaqBn3-0">
          <mxGeometry y="26" width="160" height="26" as="geometry" />
        </mxCell>
        <mxCell id="s6x1saD_XZjNKKNaqBn3-2" value="-password: Qwerty-1" style="text;align=left;verticalAlign=top;spacingLeft=4;spacingRight=4;overflow=hidden;rotatable=0;points=[[0,0.5],[1,0.5]];portConstraint=eastwest;rounded=0;shadow=0;html=0;" vertex="1" parent="s6x1saD_XZjNKKNaqBn3-0">
          <mxGeometry y="52" width="160" height="26" as="geometry" />
        </mxCell>
        <mxCell id="s6x1saD_XZjNKKNaqBn3-3" value="-smth" style="text;align=left;verticalAlign=top;spacingLeft=4;spacingRight=4;overflow=hidden;rotatable=0;points=[[0,0.5],[1,0.5]];portConstraint=eastwest;rounded=0;shadow=0;html=0;" vertex="1" parent="s6x1saD_XZjNKKNaqBn3-0">
          <mxGeometry y="78" width="160" height="26" as="geometry" />
        </mxCell>
        <mxCell id="s6x1saD_XZjNKKNaqBn3-4" value="" style="line;html=1;strokeWidth=1;align=left;verticalAlign=middle;spacingTop=-1;spacingLeft=3;spacingRight=3;rotatable=0;labelPosition=right;points=[];portConstraint=eastwest;" vertex="1" parent="s6x1saD_XZjNKKNaqBn3-0">
          <mxGeometry y="104" width="160" height="8" as="geometry" />
        </mxCell>
        <mxCell id="s6x1saD_XZjNKKNaqBn3-5" value="Something" style="text;html=1;align=center;verticalAlign=middle;resizable=0;points=[];autosize=1;" vertex="1" parent="s6x1saD_XZjNKKNaqBn3-0">
          <mxGeometry y="112" width="160" height="20" as="geometry" />
        </mxCell>
        <mxCell id="fxJzjovvNPuhe5barx0E-0" value="*component* AdmNavBar" style="swimlane;fontStyle=3;align=center;verticalAlign=top;childLayout=stackLayout;horizontal=1;startSize=26;horizontalStack=0;resizeParent=1;resizeLast=0;collapsible=1;marginBottom=0;rounded=0;shadow=0;strokeWidth=1;fillColor=#fa6800;strokeColor=#C73500;fontColor=#ffffff;" vertex="1" parent="B-sjW55xQolaK1VX04n9-1">
          <mxGeometry x="280" y="10" width="190" height="200" as="geometry">
            <mxRectangle x="20" y="200" width="160" height="26" as="alternateBounds" />
          </mxGeometry>
        </mxCell>
        <mxCell id="fxJzjovvNPuhe5barx0E-1" value="AdminPage(/admin)&#xa;PizzaList (/pizzalist)&#xa;OrderList (/orderlist)" style="text;align=left;verticalAlign=top;spacingLeft=4;spacingRight=4;overflow=hidden;rotatable=0;points=[[0,0.5],[1,0.5]];portConstraint=eastwest;rounded=0;shadow=0;html=0;" vertex="1" parent="fxJzjovvNPuhe5barx0E-0">
          <mxGeometry y="26" width="190" height="174" as="geometry" />
        </mxCell>
        <mxCell id="1V-5FTVpbR5NSY0bDQw_-0" value="" style="endArrow=classic;html=1;fontColor=none;entryX=-0.019;entryY=0.003;entryDx=0;entryDy=0;entryPerimeter=0;" edge="1" parent="B-sjW55xQolaK1VX04n9-1" target="Ik_quvj-oBrPbLBru3RL-6">
          <mxGeometry width="50" height="50" relative="1" as="geometry">
            <mxPoint x="500" y="80" as="sourcePoint" />
            <mxPoint x="540" y="76" as="targetPoint" />
            <Array as="points" />
          </mxGeometry>
        </mxCell>
        <mxCell id="1V-5FTVpbR5NSY0bDQw_-1" value="" style="endArrow=classic;html=1;fontColor=none;exitX=1;exitY=0.5;exitDx=0;exitDy=0;entryX=1;entryY=0.5;entryDx=0;entryDy=0;" edge="1" parent="B-sjW55xQolaK1VX04n9-1" source="Ik_quvj-oBrPbLBru3RL-6" target="Ik_quvj-oBrPbLBru3RL-13">
          <mxGeometry width="50" height="50" relative="1" as="geometry">
            <mxPoint x="510" y="300" as="sourcePoint" />
            <mxPoint x="810" y="270" as="targetPoint" />
            <Array as="points">
              <mxPoint x="810" y="105" />
              <mxPoint x="810" y="270" />
            </Array>
          </mxGeometry>
        </mxCell>
        <mxCell id="1V-5FTVpbR5NSY0bDQw_-2" value="OrderListPage" style="swimlane;fontStyle=1;align=center;verticalAlign=top;childLayout=stackLayout;horizontal=1;startSize=26;horizontalStack=0;resizeParent=1;resizeLast=0;collapsible=1;marginBottom=0;rounded=0;shadow=0;strokeWidth=1;fillColor=#fff2cc;" vertex="1" parent="B-sjW55xQolaK1VX04n9-1">
          <mxGeometry x="540" y="390" width="240" height="106" as="geometry">
            <mxRectangle x="20" y="200" width="160" height="26" as="alternateBounds" />
          </mxGeometry>
        </mxCell>
        <mxCell id="1V-5FTVpbR5NSY0bDQw_-3" value="AdmNavBar ()" style="text;align=left;verticalAlign=top;spacingLeft=4;spacingRight=4;overflow=hidden;rotatable=0;points=[[0,0.5],[1,0.5]];portConstraint=eastwest;rounded=0;shadow=0;html=0;strokeColor=#000000;fontStyle=1" vertex="1" parent="1V-5FTVpbR5NSY0bDQw_-2">
          <mxGeometry y="26" width="240" height="24" as="geometry" />
        </mxCell>
        <mxCell id="1V-5FTVpbR5NSY0bDQw_-4" value="grid: orders[Tables.DbOrder.N]" style="text;align=left;verticalAlign=top;spacingLeft=4;spacingRight=4;overflow=hidden;rotatable=0;points=[[0,0.5],[1,0.5]];portConstraint=eastwest;rounded=0;shadow=0;html=0;" vertex="1" parent="1V-5FTVpbR5NSY0bDQw_-2">
          <mxGeometry y="50" width="240" height="30" as="geometry" />
        </mxCell>
        <mxCell id="1V-5FTVpbR5NSY0bDQw_-6" value="Fotter ()" style="text;align=left;verticalAlign=top;spacingLeft=4;spacingRight=4;overflow=hidden;rotatable=0;points=[[0,0.5],[1,0.5]];portConstraint=eastwest;rounded=0;shadow=0;html=0;fontStyle=1;strokeColor=#000000;" vertex="1" parent="1V-5FTVpbR5NSY0bDQw_-2">
          <mxGeometry y="80" width="240" height="26" as="geometry" />
        </mxCell>
        <mxCell id="fUaMzp1Mtxd4EwATGUbl-2" value="" style="endArrow=classic;html=1;fontColor=none;entryX=-0.008;entryY=1.004;entryDx=0;entryDy=0;entryPerimeter=0;" edge="1" parent="B-sjW55xQolaK1VX04n9-1" target="1V-5FTVpbR5NSY0bDQw_-3">
          <mxGeometry width="50" height="50" relative="1" as="geometry">
            <mxPoint x="480" y="410" as="sourcePoint" />
            <mxPoint x="530" y="438" as="targetPoint" />
            <Array as="points">
              <mxPoint x="480" y="438" />
            </Array>
          </mxGeometry>
        </mxCell>
        <mxCell id="Ik_quvj-oBrPbLBru3RL-0" value="PizzaListPage" style="swimlane;fontStyle=1;align=center;verticalAlign=top;childLayout=stackLayout;horizontal=1;startSize=26;horizontalStack=0;resizeParent=1;resizeLast=0;collapsible=1;marginBottom=0;rounded=0;shadow=0;strokeWidth=1;fillColor=#fff2cc;" vertex="1" parent="B-sjW55xQolaK1VX04n9-1">
          <mxGeometry x="540" width="250" height="174" as="geometry">
            <mxRectangle x="20" y="200" width="160" height="26" as="alternateBounds" />
          </mxGeometry>
        </mxCell>
        <mxCell id="Ik_quvj-oBrPbLBru3RL-1" value="AdmNavBar ()" style="text;align=left;verticalAlign=top;spacingLeft=4;spacingRight=4;overflow=hidden;rotatable=0;points=[[0,0.5],[1,0.5]];portConstraint=eastwest;rounded=0;shadow=0;html=0;strokeColor=#000000;fontStyle=1" vertex="1" parent="Ik_quvj-oBrPbLBru3RL-0">
          <mxGeometry y="26" width="250" height="24" as="geometry" />
        </mxCell>
        <mxCell id="Ik_quvj-oBrPbLBru3RL-2" value="grid(pizzas[])" style="text;align=left;verticalAlign=top;spacingLeft=4;spacingRight=4;overflow=hidden;rotatable=0;points=[[0,0.5],[1,0.5]];portConstraint=eastwest;rounded=0;shadow=0;html=0;" vertex="1" parent="Ik_quvj-oBrPbLBru3RL-0">
          <mxGeometry y="50" width="250" height="30" as="geometry" />
        </mxCell>
        <mxCell id="Ik_quvj-oBrPbLBru3RL-6" value="LinkAddPizza =&gt; /addpizza" style="text;align=left;verticalAlign=top;spacingLeft=4;spacingRight=4;overflow=hidden;rotatable=0;points=[[0,0.5],[1,0.5]];portConstraint=eastwest;rounded=0;shadow=0;html=0;strokeColor=#000000;" vertex="1" parent="Ik_quvj-oBrPbLBru3RL-0">
          <mxGeometry y="80" width="250" height="30" as="geometry" />
        </mxCell>
        <mxCell id="Ik_quvj-oBrPbLBru3RL-5" value="btnDeletePizza =&gt; fucn.delete pizza from db" style="text;align=left;verticalAlign=top;spacingLeft=4;spacingRight=4;overflow=hidden;rotatable=0;points=[[0,0.5],[1,0.5]];portConstraint=eastwest;rounded=0;shadow=0;html=0;" vertex="1" parent="Ik_quvj-oBrPbLBru3RL-0">
          <mxGeometry y="110" width="250" height="30" as="geometry" />
        </mxCell>
        <mxCell id="Ik_quvj-oBrPbLBru3RL-3" value="" style="line;html=1;strokeWidth=1;align=left;verticalAlign=middle;spacingTop=-1;spacingLeft=3;spacingRight=3;rotatable=0;labelPosition=right;points=[];portConstraint=eastwest;" vertex="1" parent="Ik_quvj-oBrPbLBru3RL-0">
          <mxGeometry y="140" width="250" height="8" as="geometry" />
        </mxCell>
        <mxCell id="Ik_quvj-oBrPbLBru3RL-4" value="Fotter ()" style="text;align=left;verticalAlign=top;spacingLeft=4;spacingRight=4;overflow=hidden;rotatable=0;points=[[0,0.5],[1,0.5]];portConstraint=eastwest;rounded=0;shadow=0;html=0;fontStyle=1" vertex="1" parent="Ik_quvj-oBrPbLBru3RL-0">
          <mxGeometry y="148" width="250" height="26" as="geometry" />
        </mxCell>
      </root>
    </mxGraphModel>
  </diagram>
  <diagram id="aVuSa37pLBZzhM1sL3zl" name="Backend">
    <mxGraphModel dx="1070" dy="706" grid="1" gridSize="10" guides="1" tooltips="1" connect="1" arrows="1" fold="1" page="1" pageScale="1" pageWidth="827" pageHeight="1169" math="0" shadow="0">
      <root>
        <mxCell id="K_jRN7DKb3KsQdmtQ0bh-0" />
        <mxCell id="K_jRN7DKb3KsQdmtQ0bh-1" parent="K_jRN7DKb3KsQdmtQ0bh-0" />
        <mxCell id="zRinSPvlSZdjHy17cvl7-0" value="DbUser" style="shape=umlFrame;whiteSpace=wrap;html=1;strokeColor=#666666;strokeWidth=1;fillColor=#f5f5f5;gradientColor=#b3b3b3;" vertex="1" parent="K_jRN7DKb3KsQdmtQ0bh-1">
          <mxGeometry x="60" y="60" width="300" height="200" as="geometry" />
        </mxCell>
        <mxCell id="zRinSPvlSZdjHy17cvl7-3" value="" style="endArrow=none;html=1;fontColor=none;" edge="1" parent="K_jRN7DKb3KsQdmtQ0bh-1">
          <mxGeometry width="50" height="50" relative="1" as="geometry">
            <mxPoint x="40" y="845.45458984375" as="sourcePoint" />
            <mxPoint x="40" y="20" as="targetPoint" />
          </mxGeometry>
        </mxCell>
        <mxCell id="zRinSPvlSZdjHy17cvl7-4" value="" style="endArrow=none;html=1;fontColor=none;" edge="1" parent="K_jRN7DKb3KsQdmtQ0bh-1">
          <mxGeometry width="50" height="50" relative="1" as="geometry">
            <mxPoint x="800" y="845.45458984375" as="sourcePoint" />
            <mxPoint x="800" y="20" as="targetPoint" />
          </mxGeometry>
        </mxCell>
        <mxCell id="zRinSPvlSZdjHy17cvl7-5" value="" style="endArrow=none;html=1;fontColor=none;" edge="1" parent="K_jRN7DKb3KsQdmtQ0bh-1">
          <mxGeometry width="50" height="50" relative="1" as="geometry">
            <mxPoint x="800" y="20" as="sourcePoint" />
            <mxPoint x="40" y="20" as="targetPoint" />
          </mxGeometry>
        </mxCell>
        <mxCell id="zRinSPvlSZdjHy17cvl7-6" value="" style="endArrow=none;html=1;fontColor=none;" edge="1" parent="K_jRN7DKb3KsQdmtQ0bh-1">
          <mxGeometry width="50" height="50" relative="1" as="geometry">
            <mxPoint x="800" y="839.9972644042969" as="sourcePoint" />
            <mxPoint x="40" y="847.27" as="targetPoint" />
          </mxGeometry>
        </mxCell>
        <mxCell id="zRinSPvlSZdjHy17cvl7-13" value="DbPizza" style="shape=umlFrame;whiteSpace=wrap;html=1;strokeColor=#666666;strokeWidth=1;fillColor=#f5f5f5;gradientColor=#b3b3b3;" vertex="1" parent="K_jRN7DKb3KsQdmtQ0bh-1">
          <mxGeometry x="470" y="60" width="300" height="200" as="geometry" />
        </mxCell>
        <mxCell id="zRinSPvlSZdjHy17cvl7-21" value="DbUserInfo" style="shape=umlFrame;whiteSpace=wrap;html=1;strokeColor=#666666;strokeWidth=1;fillColor=#f5f5f5;gradientColor=#b3b3b3;" vertex="1" parent="K_jRN7DKb3KsQdmtQ0bh-1">
          <mxGeometry x="60" y="300" width="300" height="200" as="geometry" />
        </mxCell>
        <mxCell id="zRinSPvlSZdjHy17cvl7-22" value="User short info" style="swimlane;fontStyle=1;align=center;verticalAlign=top;childLayout=stackLayout;horizontal=1;startSize=26;horizontalStack=0;resizeParent=1;resizeParentMax=0;resizeLast=0;collapsible=1;marginBottom=0;strokeColor=#36393d;strokeWidth=1;fillColor=#ffff88;" vertex="1" parent="K_jRN7DKb3KsQdmtQ0bh-1">
          <mxGeometry x="90" y="340" width="240" height="130" as="geometry" />
        </mxCell>
        <mxCell id="Mjrw9aqb9ICXkVzQMWHE-2" value="PhoneNumber (NNecessary)" style="text;strokeColor=none;fillColor=none;align=left;verticalAlign=top;spacingLeft=4;spacingRight=4;overflow=hidden;rotatable=0;points=[[0,0.5],[1,0.5]];portConstraint=eastwest;" vertex="1" parent="zRinSPvlSZdjHy17cvl7-22">
          <mxGeometry y="26" width="240" height="26" as="geometry" />
        </mxCell>
        <mxCell id="Mjrw9aqb9ICXkVzQMWHE-3" value="City (NNecessary)" style="text;strokeColor=none;fillColor=none;align=left;verticalAlign=top;spacingLeft=4;spacingRight=4;overflow=hidden;rotatable=0;points=[[0,0.5],[1,0.5]];portConstraint=eastwest;" vertex="1" parent="zRinSPvlSZdjHy17cvl7-22">
          <mxGeometry y="52" width="240" height="26" as="geometry" />
        </mxCell>
        <mxCell id="Mjrw9aqb9ICXkVzQMWHE-4" value="PhysicalAddress (NNecessary)" style="text;strokeColor=none;fillColor=none;align=left;verticalAlign=top;spacingLeft=4;spacingRight=4;overflow=hidden;rotatable=0;points=[[0,0.5],[1,0.5]];portConstraint=eastwest;" vertex="1" parent="zRinSPvlSZdjHy17cvl7-22">
          <mxGeometry y="78" width="240" height="26" as="geometry" />
        </mxCell>
        <mxCell id="Mjrw9aqb9ICXkVzQMWHE-5" value="WalletExpense (-?)" style="text;strokeColor=none;fillColor=none;align=left;verticalAlign=top;spacingLeft=4;spacingRight=4;overflow=hidden;rotatable=0;points=[[0,0.5],[1,0.5]];portConstraint=eastwest;" vertex="1" parent="zRinSPvlSZdjHy17cvl7-22">
          <mxGeometry y="104" width="240" height="26" as="geometry" />
        </mxCell>
        <mxCell id="zRinSPvlSZdjHy17cvl7-27" value="DbOrder" style="shape=umlFrame;whiteSpace=wrap;html=1;strokeColor=#666666;strokeWidth=1;fillColor=#f5f5f5;gradientColor=#b3b3b3;" vertex="1" parent="K_jRN7DKb3KsQdmtQ0bh-1">
          <mxGeometry x="470" y="296" width="300" height="200" as="geometry" />
        </mxCell>
        <mxCell id="zRinSPvlSZdjHy17cvl7-36" value="Pizza" style="swimlane;fontStyle=1;align=center;verticalAlign=top;childLayout=stackLayout;horizontal=1;startSize=26;horizontalStack=0;resizeParent=1;resizeParentMax=0;resizeLast=0;collapsible=1;marginBottom=0;strokeColor=#36393d;strokeWidth=1;fillColor=#ffff88;" vertex="1" parent="K_jRN7DKb3KsQdmtQ0bh-1">
          <mxGeometry x="525" y="87" width="215" height="164" as="geometry" />
        </mxCell>
        <mxCell id="zRinSPvlSZdjHy17cvl7-37" value="Id" style="text;strokeColor=none;fillColor=none;align=left;verticalAlign=top;spacingLeft=4;spacingRight=4;overflow=hidden;rotatable=0;points=[[0,0.5],[1,0.5]];portConstraint=eastwest;" vertex="1" parent="zRinSPvlSZdjHy17cvl7-36">
          <mxGeometry y="26" width="215" height="26" as="geometry" />
        </mxCell>
        <mxCell id="zRinSPvlSZdjHy17cvl7-38" value="PizzaName" style="text;strokeColor=none;fillColor=none;align=left;verticalAlign=top;spacingLeft=4;spacingRight=4;overflow=hidden;rotatable=0;points=[[0,0.5],[1,0.5]];portConstraint=eastwest;" vertex="1" parent="zRinSPvlSZdjHy17cvl7-36">
          <mxGeometry y="52" width="215" height="26" as="geometry" />
        </mxCell>
        <mxCell id="zRinSPvlSZdjHy17cvl7-39" value="Cost(₴)" style="text;strokeColor=none;fillColor=none;align=left;verticalAlign=top;spacingLeft=4;spacingRight=4;overflow=hidden;rotatable=0;points=[[0,0.5],[1,0.5]];portConstraint=eastwest;" vertex="1" parent="zRinSPvlSZdjHy17cvl7-36">
          <mxGeometry y="78" width="215" height="26" as="geometry" />
        </mxCell>
        <mxCell id="zRinSPvlSZdjHy17cvl7-40" value="MainIngredient(meat, cheese and etc)" style="text;strokeColor=none;fillColor=none;align=left;verticalAlign=top;spacingLeft=4;spacingRight=4;overflow=hidden;rotatable=0;points=[[0,0.5],[1,0.5]];portConstraint=eastwest;" vertex="1" parent="zRinSPvlSZdjHy17cvl7-36">
          <mxGeometry y="104" width="215" height="26" as="geometry" />
        </mxCell>
        <mxCell id="zRinSPvlSZdjHy17cvl7-42" value="weight(0.5kg/1kg)" style="text;strokeColor=none;fillColor=none;align=left;verticalAlign=top;spacingLeft=4;spacingRight=4;overflow=hidden;rotatable=0;points=[[0,0.5],[1,0.5]];portConstraint=eastwest;" vertex="1" parent="zRinSPvlSZdjHy17cvl7-36">
          <mxGeometry y="130" width="215" height="26" as="geometry" />
        </mxCell>
        <mxCell id="zRinSPvlSZdjHy17cvl7-41" value="" style="line;strokeWidth=1;fillColor=none;align=left;verticalAlign=middle;spacingTop=-1;spacingLeft=3;spacingRight=3;rotatable=0;labelPosition=right;points=[];portConstraint=eastwest;strokeColor=none;" vertex="1" parent="zRinSPvlSZdjHy17cvl7-36">
          <mxGeometry y="156" width="215" height="8" as="geometry" />
        </mxCell>
        <mxCell id="SrA2hyyYJ8yrvXS-UKV7-0" value="&lt;b&gt;&lt;font style=&quot;font-size: 15px&quot;&gt;Tables&lt;/font&gt;&lt;/b&gt;" style="text;html=1;align=center;verticalAlign=middle;resizable=0;points=[];autosize=1;fontColor=none;" vertex="1" parent="K_jRN7DKb3KsQdmtQ0bh-1">
          <mxGeometry x="40" y="30" width="60" height="20" as="geometry" />
        </mxCell>
        <mxCell id="Mjrw9aqb9ICXkVzQMWHE-6" value="Using in user profile" style="text;html=1;align=center;verticalAlign=middle;resizable=0;points=[];autosize=1;fillColor=#fad7ac;strokeColor=#b46504;" vertex="1" parent="K_jRN7DKb3KsQdmtQ0bh-1">
          <mxGeometry x="240" y="480" width="120" height="20" as="geometry" />
        </mxCell>
        <mxCell id="zRinSPvlSZdjHy17cvl7-28" value="Order &#xa;" style="swimlane;fontStyle=1;align=center;verticalAlign=top;childLayout=stackLayout;horizontal=1;startSize=26;horizontalStack=0;resizeParent=1;resizeParentMax=0;resizeLast=0;collapsible=1;marginBottom=0;strokeColor=#36393d;strokeWidth=1;fillColor=#ffff88;" vertex="1" parent="K_jRN7DKb3KsQdmtQ0bh-1">
          <mxGeometry x="490" y="335" width="260" height="130" as="geometry" />
        </mxCell>
        <mxCell id="Ov3geLmsnlgl7a-Tko7--0" value="date" style="text;fillColor=none;align=left;verticalAlign=top;spacingLeft=4;spacingRight=4;overflow=hidden;rotatable=0;points=[[0,0.5],[1,0.5]];portConstraint=eastwest;strokeColor=#000000;" vertex="1" parent="zRinSPvlSZdjHy17cvl7-28">
          <mxGeometry y="26" width="260" height="26" as="geometry" />
        </mxCell>
        <mxCell id="Ov3geLmsnlgl7a-Tko7--3" value="pizzas[]" style="text;fillColor=none;align=left;verticalAlign=top;spacingLeft=4;spacingRight=4;overflow=hidden;rotatable=0;points=[[0,0.5],[1,0.5]];portConstraint=eastwest;strokeColor=#000000;" vertex="1" parent="zRinSPvlSZdjHy17cvl7-28">
          <mxGeometry y="52" width="260" height="26" as="geometry" />
        </mxCell>
        <mxCell id="Ov3geLmsnlgl7a-Tko7--2" value="cost" style="text;fillColor=none;align=left;verticalAlign=top;spacingLeft=4;spacingRight=4;overflow=hidden;rotatable=0;points=[[0,0.5],[1,0.5]];portConstraint=eastwest;strokeColor=#000000;" vertex="1" parent="zRinSPvlSZdjHy17cvl7-28">
          <mxGeometry y="78" width="260" height="26" as="geometry" />
        </mxCell>
        <mxCell id="Ov3geLmsnlgl7a-Tko7--1" value="+ method(show): showing on grid in /orderList " style="text;fillColor=none;align=left;verticalAlign=top;spacingLeft=4;spacingRight=4;overflow=hidden;rotatable=0;points=[[0,0.5],[1,0.5]];portConstraint=eastwest;" vertex="1" parent="zRinSPvlSZdjHy17cvl7-28">
          <mxGeometry y="104" width="260" height="26" as="geometry" />
        </mxCell>
        <mxCell id="Ov3geLmsnlgl7a-Tko7--4" value="Using in Login and Register Pages" style="text;html=1;align=center;verticalAlign=middle;resizable=0;points=[];autosize=1;fillColor=#fad7ac;strokeColor=#b46504;" vertex="1" parent="K_jRN7DKb3KsQdmtQ0bh-1">
          <mxGeometry x="160" y="240" width="200" height="20" as="geometry" />
        </mxCell>
        <mxCell id="Ov3geLmsnlgl7a-Tko7--5" value="Using in admin page /addPizza" style="text;html=1;align=center;verticalAlign=middle;resizable=0;points=[];autosize=1;fillColor=#fad7ac;strokeColor=#b46504;" vertex="1" parent="K_jRN7DKb3KsQdmtQ0bh-1">
          <mxGeometry x="590" y="60" width="180" height="20" as="geometry" />
        </mxCell>
        <mxCell id="Ov3geLmsnlgl7a-Tko7--6" value="Using in showing /orderlist" style="text;html=1;align=center;verticalAlign=middle;resizable=0;points=[];autosize=1;fillColor=#fad7ac;strokeColor=#b46504;" vertex="1" parent="K_jRN7DKb3KsQdmtQ0bh-1">
          <mxGeometry x="610" y="476" width="160" height="20" as="geometry" />
        </mxCell>
        <mxCell id="zRinSPvlSZdjHy17cvl7-7" value="User" style="swimlane;fontStyle=1;align=center;verticalAlign=top;childLayout=stackLayout;horizontal=1;startSize=26;horizontalStack=0;resizeParent=1;resizeParentMax=0;resizeLast=0;collapsible=1;marginBottom=0;strokeColor=#36393d;strokeWidth=1;fillColor=#ffff88;" vertex="1" parent="K_jRN7DKb3KsQdmtQ0bh-1">
          <mxGeometry x="122.5" y="104" width="175" height="112" as="geometry" />
        </mxCell>
        <mxCell id="zRinSPvlSZdjHy17cvl7-35" value="Id (autoInc)" style="text;strokeColor=none;fillColor=none;align=left;verticalAlign=top;spacingLeft=4;spacingRight=4;overflow=hidden;rotatable=0;points=[[0,0.5],[1,0.5]];portConstraint=eastwest;" vertex="1" parent="zRinSPvlSZdjHy17cvl7-7">
          <mxGeometry y="26" width="175" height="26" as="geometry" />
        </mxCell>
        <mxCell id="zRinSPvlSZdjHy17cvl7-8" value="Email (Necessary)" style="text;strokeColor=none;fillColor=none;align=left;verticalAlign=top;spacingLeft=4;spacingRight=4;overflow=hidden;rotatable=0;points=[[0,0.5],[1,0.5]];portConstraint=eastwest;" vertex="1" parent="zRinSPvlSZdjHy17cvl7-7">
          <mxGeometry y="52" width="175" height="26" as="geometry" />
        </mxCell>
        <mxCell id="zRinSPvlSZdjHy17cvl7-33" value="Password (Necessary)" style="text;strokeColor=none;fillColor=none;align=left;verticalAlign=top;spacingLeft=4;spacingRight=4;overflow=hidden;rotatable=0;points=[[0,0.5],[1,0.5]];portConstraint=eastwest;" vertex="1" parent="zRinSPvlSZdjHy17cvl7-7">
          <mxGeometry y="78" width="175" height="26" as="geometry" />
        </mxCell>
        <mxCell id="zRinSPvlSZdjHy17cvl7-9" value="" style="line;strokeWidth=1;fillColor=none;align=left;verticalAlign=middle;spacingTop=-1;spacingLeft=3;spacingRight=3;rotatable=0;labelPosition=right;points=[];portConstraint=eastwest;strokeColor=none;" vertex="1" parent="zRinSPvlSZdjHy17cvl7-7">
          <mxGeometry y="104" width="175" height="8" as="geometry" />
        </mxCell>
      </root>
    </mxGraphModel>
  </diagram>
</mxfile>
